TITLE ""
FILE "2Q_j_1449-1462.mp3" MP3
  TRACK 01 AUDIO
    TITLE "2Q_j_1449-1462_01"
    INDEX 01 00:00:00
  TRACK 02 AUDIO
    TITLE "2Q_j_1449-1462_02"
    INDEX 01 00:00:22
  TRACK 03 AUDIO
    TITLE "2Q_j_1449-1462_03"
    INDEX 01 00:02:07
  TRACK 04 AUDIO
    TITLE "2Q_j_1449-1462_04"
    INDEX 01 00:02:60
  TRACK 05 AUDIO
    TITLE "2Q_j_1449-1462_05"
    INDEX 01 00:04:04
  TRACK 06 AUDIO
    TITLE "2Q_j_1449-1462_06"
    INDEX 01 00:04:49
  TRACK 07 AUDIO
    TITLE "2Q_j_1449-1462_07"
    INDEX 01 00:08:02
  TRACK 08 AUDIO
    TITLE "2Q_j_1449-1462_08"
    INDEX 01 00:08:53
  TRACK 09 AUDIO
    TITLE "2Q_j_1449-1462_09"
    INDEX 01 00:10:03
  TRACK 10 AUDIO
    TITLE "2Q_j_1449-1462_10"
    INDEX 01 00:10:50
  TRACK 11 AUDIO
    TITLE "2Q_j_1449-1462_11"
    INDEX 01 00:12:51
  TRACK 12 AUDIO
    TITLE "2Q_j_1449-1462_12"
    INDEX 01 00:13:19
  TRACK 13 AUDIO
    TITLE "2Q_j_1449-1462_13"
    INDEX 01 00:18:02
  TRACK 14 AUDIO
    TITLE "2Q_j_1449-1462_14"
    INDEX 01 00:18:49
  TRACK 15 AUDIO
    TITLE "2Q_j_1449-1462_15"
    INDEX 01 00:20:68
  TRACK 16 AUDIO
    TITLE "2Q_j_1449-1462_16"
    INDEX 01 00:21:44
  TRACK 17 AUDIO
    TITLE "2Q_j_1449-1462_17"
    INDEX 01 00:23:37
  TRACK 18 AUDIO
    TITLE "2Q_j_1449-1462_18"
    INDEX 01 00:24:09
  TRACK 19 AUDIO
    TITLE "2Q_j_1449-1462_19"
    INDEX 01 00:28:73
  TRACK 20 AUDIO
    TITLE "2Q_j_1449-1462_20"
    INDEX 01 00:29:47
  TRACK 21 AUDIO
    TITLE "2Q_j_1449-1462_21"
    INDEX 01 00:31:23
  TRACK 22 AUDIO
    TITLE "2Q_j_1449-1462_22"
    INDEX 01 00:31:68
  TRACK 23 AUDIO
    TITLE "2Q_j_1449-1462_23"
    INDEX 01 00:33:67
  TRACK 24 AUDIO
    TITLE "2Q_j_1449-1462_24"
    INDEX 01 00:34:37
  TRACK 25 AUDIO
    TITLE "2Q_j_1449-1462_25"
    INDEX 01 00:40:43
  TRACK 26 AUDIO
    TITLE "2Q_j_1449-1462_26"
    INDEX 01 00:41:15
  TRACK 27 AUDIO
    TITLE "2Q_j_1449-1462_27"
    INDEX 01 00:42:32
  TRACK 28 AUDIO
    TITLE "2Q_j_1449-1462_28"
    INDEX 01 00:43:02
  TRACK 29 AUDIO
    TITLE "2Q_j_1449-1462_29"
    INDEX 01 00:46:50
  TRACK 30 AUDIO
    TITLE "2Q_j_1449-1462_30"
    INDEX 01 00:47:18
  TRACK 31 AUDIO
    TITLE "2Q_j_1449-1462_31"
    INDEX 01 00:52:01
  TRACK 32 AUDIO
    TITLE "2Q_j_1449-1462_32"
    INDEX 01 00:52:48
  TRACK 33 AUDIO
    TITLE "2Q_j_1449-1462_33"
    INDEX 01 00:53:69
  TRACK 34 AUDIO
    TITLE "2Q_j_1449-1462_34"
    INDEX 01 00:54:41
  TRACK 35 AUDIO
    TITLE "2Q_j_1449-1462_35"
    INDEX 01 00:57:36
  TRACK 36 AUDIO
    TITLE "2Q_j_1449-1462_36"
    INDEX 01 00:58:06
  TRACK 37 AUDIO
    TITLE "2Q_j_1449-1462_37"
    INDEX 01 01:00:56
  TRACK 38 AUDIO
    TITLE "2Q_j_1449-1462_38"
    INDEX 01 01:01:28
  TRACK 39 AUDIO
    TITLE "2Q_j_1449-1462_39"
    INDEX 01 01:02:70
  TRACK 40 AUDIO
    TITLE "2Q_j_1449-1462_40"
    INDEX 01 01:03:42
  TRACK 41 AUDIO
    TITLE "2Q_j_1449-1462_41"
    INDEX 01 01:07:16
  TRACK 42 AUDIO
    TITLE "2Q_j_1449-1462_42"
    INDEX 01 01:07:64
  TRACK 43 AUDIO
    TITLE "2Q_j_1449-1462_43"
    INDEX 01 01:11:71
  TRACK 44 AUDIO
    TITLE "2Q_j_1449-1462_44"
    INDEX 01 01:12:41
  TRACK 45 AUDIO
    TITLE "2Q_j_1449-1462_45"
    INDEX 01 01:13:56
  TRACK 46 AUDIO
    TITLE "2Q_j_1449-1462_46"
    INDEX 01 01:14:28
  TRACK 47 AUDIO
    TITLE "2Q_j_1449-1462_47"
    INDEX 01 01:16:72
  TRACK 48 AUDIO
    TITLE "2Q_j_1449-1462_48"
    INDEX 01 01:17:42
  TRACK 49 AUDIO
    TITLE "2Q_j_1449-1462_49"
    INDEX 01 01:21:09
  TRACK 50 AUDIO
    TITLE "2Q_j_1449-1462_50"
    INDEX 01 01:21:60
  TRACK 51 AUDIO
    TITLE "2Q_j_1449-1462_51"
    INDEX 01 01:23:00
  TRACK 52 AUDIO
    TITLE "2Q_j_1449-1462_52"
    INDEX 01 01:23:45
  TRACK 53 AUDIO
    TITLE "2Q_j_1449-1462_53"
    INDEX 01 01:25:54
  TRACK 54 AUDIO
    TITLE "2Q_j_1449-1462_54"
    INDEX 01 01:26:22
  TRACK 55 AUDIO
    TITLE "2Q_j_1449-1462_55"
    INDEX 01 01:30:45
  TRACK 56 AUDIO
    TITLE "2Q_j_1449-1462_56"
    INDEX 01 01:31:15
  TRACK 57 AUDIO
    TITLE "2Q_j_1449-1462_57"
    INDEX 01 01:32:38
  TRACK 58 AUDIO
    TITLE "2Q_j_1449-1462_58"
    INDEX 01 01:33:12
  TRACK 59 AUDIO
    TITLE "2Q_j_1449-1462_59"
    INDEX 01 01:35:27
  TRACK 60 AUDIO
    TITLE "2Q_j_1449-1462_60"
    INDEX 01 01:35:70
  TRACK 61 AUDIO
    TITLE "2Q_j_1449-1462_61"
    INDEX 01 01:39:46
  TRACK 62 AUDIO
    TITLE "2Q_j_1449-1462_62"
    INDEX 01 01:40:18
  TRACK 63 AUDIO
    TITLE "2Q_j_1449-1462_63"
    INDEX 01 01:42:21
  TRACK 64 AUDIO
    TITLE "2Q_j_1449-1462_64"
    INDEX 01 01:42:66
  TRACK 65 AUDIO
    TITLE "2Q_j_1449-1462_65"
    INDEX 01 01:44:59
  TRACK 66 AUDIO
    TITLE "2Q_j_1449-1462_66"
    INDEX 01 01:45:29
  TRACK 67 AUDIO
    TITLE "2Q_j_1449-1462_67"
    INDEX 01 01:48:23
  TRACK 68 AUDIO
    TITLE "2Q_j_1449-1462_68"
    INDEX 01 01:49:03
  TRACK 69 AUDIO
    TITLE "2Q_j_1449-1462_69"
    INDEX 01 01:50:16
  TRACK 70 AUDIO
    TITLE "2Q_j_1449-1462_70"
    INDEX 01 01:50:65
  TRACK 71 AUDIO
    TITLE "2Q_j_1449-1462_71"
    INDEX 01 01:52:01
  TRACK 72 AUDIO
    TITLE "2Q_j_1449-1462_72"
    INDEX 01 01:52:49
  TRACK 73 AUDIO
    TITLE "2Q_j_1449-1462_73"
    INDEX 01 01:55:27
  TRACK 74 AUDIO
    TITLE "2Q_j_1449-1462_74"
    INDEX 01 01:56:03
  TRACK 75 AUDIO
    TITLE "2Q_j_1449-1462_75"
    INDEX 01 01:57:40
  TRACK 76 AUDIO
    TITLE "2Q_j_1449-1462_76"
    INDEX 01 01:58:12
  TRACK 77 AUDIO
    TITLE "2Q_j_1449-1462_77"
    INDEX 01 02:00:21
  TRACK 78 AUDIO
    TITLE "2Q_j_1449-1462_78"
    INDEX 01 02:00:66
  TRACK 79 AUDIO
    TITLE "2Q_j_1449-1462_79"
    INDEX 01 02:05:67
  TRACK 80 AUDIO
    TITLE "2Q_j_1449-1462_80"
    INDEX 01 02:06:39
  TRACK 81 AUDIO
    TITLE "2Q_j_1449-1462_81"
    INDEX 01 02:07:60
  TRACK 82 AUDIO
    TITLE "2Q_j_1449-1462_82"
    INDEX 01 02:08:30
  TRACK 83 AUDIO
    TITLE "2Q_j_1449-1462_83"
    INDEX 01 02:10:60
  TRACK 84 AUDIO
    TITLE "2Q_j_1449-1462_84"
    INDEX 01 02:11:30
  TRACK 85 AUDIO
    TITLE "2Q_j_1449-1462_85"
    INDEX 01 02:14:07
